<mxfile host="app.diagrams.net" modified="2020-09-28T20:21:52.885Z" agent="5.0 (X11; Linux x86_64) AppleWebKit/537.36 (KHTML, like Gecko) Chrome/76.0.3809.100 Safari/537.36" etag="RvI6Hf-jeNq_UyNNa1qB" version="13.7.5" type="github">
  <diagram id="C5RBs43oDa-KdzZeNtuy" name="Page-1">
    <mxGraphModel dx="2031" dy="1134" grid="1" gridSize="10" guides="1" tooltips="1" connect="1" arrows="1" fold="1" page="1" pageScale="1" pageWidth="827" pageHeight="1169" math="0" shadow="0">
      <root>
        <mxCell id="WIyWlLk6GJQsqaUBKTNV-0" />
        <mxCell id="WIyWlLk6GJQsqaUBKTNV-1" parent="WIyWlLk6GJQsqaUBKTNV-0" />
        <mxCell id="9E-DVvD8XDIGVB_MegTr-2" value="" style="edgeStyle=orthogonalEdgeStyle;rounded=0;orthogonalLoop=1;jettySize=auto;html=1;entryX=0.5;entryY=0;entryDx=0;entryDy=0;" edge="1" parent="WIyWlLk6GJQsqaUBKTNV-1" source="9E-DVvD8XDIGVB_MegTr-0" target="9E-DVvD8XDIGVB_MegTr-3">
          <mxGeometry relative="1" as="geometry">
            <mxPoint x="140" y="530" as="targetPoint" />
          </mxGeometry>
        </mxCell>
        <mxCell id="9E-DVvD8XDIGVB_MegTr-0" value="New&amp;nbsp; outcoming message" style="rounded=1;whiteSpace=wrap;html=1;fillColor=#d5e8d4;strokeColor=#82b366;" vertex="1" parent="WIyWlLk6GJQsqaUBKTNV-1">
          <mxGeometry x="80" y="400" width="120" height="60" as="geometry" />
        </mxCell>
        <mxCell id="9E-DVvD8XDIGVB_MegTr-7" value="yes" style="edgeStyle=orthogonalEdgeStyle;rounded=0;orthogonalLoop=1;jettySize=auto;html=1;" edge="1" parent="WIyWlLk6GJQsqaUBKTNV-1" source="9E-DVvD8XDIGVB_MegTr-3" target="9E-DVvD8XDIGVB_MegTr-6">
          <mxGeometry relative="1" as="geometry" />
        </mxCell>
        <mxCell id="9E-DVvD8XDIGVB_MegTr-14" value="no" style="edgeStyle=orthogonalEdgeStyle;rounded=0;orthogonalLoop=1;jettySize=auto;html=1;" edge="1" parent="WIyWlLk6GJQsqaUBKTNV-1" source="9E-DVvD8XDIGVB_MegTr-3" target="9E-DVvD8XDIGVB_MegTr-13">
          <mxGeometry relative="1" as="geometry" />
        </mxCell>
        <mxCell id="9E-DVvD8XDIGVB_MegTr-3" value="Lock available?" style="rhombus;whiteSpace=wrap;html=1;" vertex="1" parent="WIyWlLk6GJQsqaUBKTNV-1">
          <mxGeometry x="65" y="500" width="150" height="100" as="geometry" />
        </mxCell>
        <mxCell id="9E-DVvD8XDIGVB_MegTr-11" value="" style="edgeStyle=orthogonalEdgeStyle;rounded=0;orthogonalLoop=1;jettySize=auto;html=1;" edge="1" parent="WIyWlLk6GJQsqaUBKTNV-1" source="9E-DVvD8XDIGVB_MegTr-6" target="9E-DVvD8XDIGVB_MegTr-9">
          <mxGeometry relative="1" as="geometry" />
        </mxCell>
        <mxCell id="9E-DVvD8XDIGVB_MegTr-6" value="Get lock" style="whiteSpace=wrap;html=1;" vertex="1" parent="WIyWlLk6GJQsqaUBKTNV-1">
          <mxGeometry x="60" y="650" width="160" height="30" as="geometry" />
        </mxCell>
        <mxCell id="9E-DVvD8XDIGVB_MegTr-8" value="Send message" style="whiteSpace=wrap;html=1;" vertex="1" parent="WIyWlLk6GJQsqaUBKTNV-1">
          <mxGeometry x="60" y="790" width="160" height="30" as="geometry" />
        </mxCell>
        <mxCell id="9E-DVvD8XDIGVB_MegTr-12" value="" style="edgeStyle=orthogonalEdgeStyle;rounded=0;orthogonalLoop=1;jettySize=auto;html=1;" edge="1" parent="WIyWlLk6GJQsqaUBKTNV-1" source="9E-DVvD8XDIGVB_MegTr-9" target="9E-DVvD8XDIGVB_MegTr-8">
          <mxGeometry relative="1" as="geometry" />
        </mxCell>
        <mxCell id="9E-DVvD8XDIGVB_MegTr-9" value="Add entry with message id key to WaitingForResponse" style="whiteSpace=wrap;html=1;" vertex="1" parent="WIyWlLk6GJQsqaUBKTNV-1">
          <mxGeometry x="60" y="720" width="160" height="30" as="geometry" />
        </mxCell>
        <mxCell id="9E-DVvD8XDIGVB_MegTr-13" value="Add message (+ metadata) to WaitingToBeSend list" style="whiteSpace=wrap;html=1;" vertex="1" parent="WIyWlLk6GJQsqaUBKTNV-1">
          <mxGeometry x="250" y="650" width="210" height="30" as="geometry" />
        </mxCell>
        <mxCell id="9E-DVvD8XDIGVB_MegTr-15" value="" style="edgeStyle=orthogonalEdgeStyle;rounded=0;orthogonalLoop=1;jettySize=auto;html=1;entryX=0.5;entryY=0;entryDx=0;entryDy=0;" edge="1" parent="WIyWlLk6GJQsqaUBKTNV-1" source="9E-DVvD8XDIGVB_MegTr-16" target="9E-DVvD8XDIGVB_MegTr-19">
          <mxGeometry relative="1" as="geometry">
            <mxPoint x="135" y="170" as="targetPoint" />
          </mxGeometry>
        </mxCell>
        <mxCell id="9E-DVvD8XDIGVB_MegTr-16" value="New incoming message" style="rounded=1;whiteSpace=wrap;html=1;fillColor=#d5e8d4;strokeColor=#82b366;" vertex="1" parent="WIyWlLk6GJQsqaUBKTNV-1">
          <mxGeometry x="75" y="40" width="120" height="60" as="geometry" />
        </mxCell>
        <mxCell id="9E-DVvD8XDIGVB_MegTr-17" value="no" style="edgeStyle=orthogonalEdgeStyle;rounded=0;orthogonalLoop=1;jettySize=auto;html=1;" edge="1" parent="WIyWlLk6GJQsqaUBKTNV-1" source="9E-DVvD8XDIGVB_MegTr-19" target="9E-DVvD8XDIGVB_MegTr-21">
          <mxGeometry relative="1" as="geometry" />
        </mxCell>
        <mxCell id="9E-DVvD8XDIGVB_MegTr-28" value="yes" style="edgeStyle=orthogonalEdgeStyle;rounded=0;orthogonalLoop=1;jettySize=auto;html=1;" edge="1" parent="WIyWlLk6GJQsqaUBKTNV-1" source="9E-DVvD8XDIGVB_MegTr-19" target="9E-DVvD8XDIGVB_MegTr-27">
          <mxGeometry relative="1" as="geometry" />
        </mxCell>
        <mxCell id="9E-DVvD8XDIGVB_MegTr-19" value="messge_id&amp;nbsp; &amp;lt; 0" style="rhombus;whiteSpace=wrap;html=1;" vertex="1" parent="WIyWlLk6GJQsqaUBKTNV-1">
          <mxGeometry x="60" y="140" width="150" height="100" as="geometry" />
        </mxCell>
        <mxCell id="9E-DVvD8XDIGVB_MegTr-21" value="Special uninitiated message" style="whiteSpace=wrap;html=1;" vertex="1" parent="WIyWlLk6GJQsqaUBKTNV-1">
          <mxGeometry x="75" y="290" width="120" height="30" as="geometry" />
        </mxCell>
        <mxCell id="9E-DVvD8XDIGVB_MegTr-30" value="no" style="edgeStyle=orthogonalEdgeStyle;rounded=0;orthogonalLoop=1;jettySize=auto;html=1;" edge="1" parent="WIyWlLk6GJQsqaUBKTNV-1" source="9E-DVvD8XDIGVB_MegTr-27" target="9E-DVvD8XDIGVB_MegTr-29">
          <mxGeometry relative="1" as="geometry" />
        </mxCell>
        <mxCell id="9E-DVvD8XDIGVB_MegTr-64" value="" style="edgeStyle=orthogonalEdgeStyle;rounded=0;orthogonalLoop=1;jettySize=auto;html=1;" edge="1" parent="WIyWlLk6GJQsqaUBKTNV-1" source="9E-DVvD8XDIGVB_MegTr-27" target="9E-DVvD8XDIGVB_MegTr-63">
          <mxGeometry relative="1" as="geometry" />
        </mxCell>
        <mxCell id="9E-DVvD8XDIGVB_MegTr-27" value="&lt;span&gt;messge_id in&amp;nbsp;&lt;/span&gt;WaitingForResponse?" style="rhombus;whiteSpace=wrap;html=1;" vertex="1" parent="WIyWlLk6GJQsqaUBKTNV-1">
          <mxGeometry x="290" y="140" width="150" height="100" as="geometry" />
        </mxCell>
        <mxCell id="9E-DVvD8XDIGVB_MegTr-29" value="Discard" style="whiteSpace=wrap;html=1;" vertex="1" parent="WIyWlLk6GJQsqaUBKTNV-1">
          <mxGeometry x="305" y="290" width="120" height="30" as="geometry" />
        </mxCell>
        <mxCell id="9E-DVvD8XDIGVB_MegTr-34" value="no" style="edgeStyle=orthogonalEdgeStyle;rounded=0;orthogonalLoop=1;jettySize=auto;html=1;" edge="1" parent="WIyWlLk6GJQsqaUBKTNV-1" source="9E-DVvD8XDIGVB_MegTr-31" target="9E-DVvD8XDIGVB_MegTr-33">
          <mxGeometry relative="1" as="geometry" />
        </mxCell>
        <mxCell id="9E-DVvD8XDIGVB_MegTr-36" value="yes" style="edgeStyle=orthogonalEdgeStyle;rounded=0;orthogonalLoop=1;jettySize=auto;html=1;" edge="1" parent="WIyWlLk6GJQsqaUBKTNV-1" source="9E-DVvD8XDIGVB_MegTr-31" target="9E-DVvD8XDIGVB_MegTr-35">
          <mxGeometry relative="1" as="geometry" />
        </mxCell>
        <mxCell id="9E-DVvD8XDIGVB_MegTr-31" value="status code is ok?" style="rhombus;whiteSpace=wrap;html=1;" vertex="1" parent="WIyWlLk6GJQsqaUBKTNV-1">
          <mxGeometry x="820" y="140" width="150" height="100" as="geometry" />
        </mxCell>
        <mxCell id="9E-DVvD8XDIGVB_MegTr-33" value="Throw error" style="whiteSpace=wrap;html=1;" vertex="1" parent="WIyWlLk6GJQsqaUBKTNV-1">
          <mxGeometry x="835" y="290" width="120" height="30" as="geometry" />
        </mxCell>
        <mxCell id="9E-DVvD8XDIGVB_MegTr-45" value="" style="edgeStyle=orthogonalEdgeStyle;rounded=0;orthogonalLoop=1;jettySize=auto;html=1;" edge="1" parent="WIyWlLk6GJQsqaUBKTNV-1" source="9E-DVvD8XDIGVB_MegTr-35" target="9E-DVvD8XDIGVB_MegTr-43">
          <mxGeometry relative="1" as="geometry" />
        </mxCell>
        <mxCell id="9E-DVvD8XDIGVB_MegTr-35" value="Resolve payload" style="whiteSpace=wrap;html=1;" vertex="1" parent="WIyWlLk6GJQsqaUBKTNV-1">
          <mxGeometry x="1024" y="160" width="120" height="60" as="geometry" />
        </mxCell>
        <mxCell id="9E-DVvD8XDIGVB_MegTr-39" value="" style="edgeStyle=orthogonalEdgeStyle;rounded=0;orthogonalLoop=1;jettySize=auto;html=1;" edge="1" parent="WIyWlLk6GJQsqaUBKTNV-1" source="9E-DVvD8XDIGVB_MegTr-37" target="9E-DVvD8XDIGVB_MegTr-31">
          <mxGeometry relative="1" as="geometry" />
        </mxCell>
        <mxCell id="9E-DVvD8XDIGVB_MegTr-37" value="&amp;nbsp;remove messge_id from WaitingForResponse" style="whiteSpace=wrap;html=1;" vertex="1" parent="WIyWlLk6GJQsqaUBKTNV-1">
          <mxGeometry x="670" y="70" width="120" height="60" as="geometry" />
        </mxCell>
        <mxCell id="9E-DVvD8XDIGVB_MegTr-56" value="no" style="edgeStyle=orthogonalEdgeStyle;rounded=0;orthogonalLoop=1;jettySize=auto;html=1;" edge="1" parent="WIyWlLk6GJQsqaUBKTNV-1" source="9E-DVvD8XDIGVB_MegTr-43" target="9E-DVvD8XDIGVB_MegTr-54">
          <mxGeometry relative="1" as="geometry" />
        </mxCell>
        <mxCell id="9E-DVvD8XDIGVB_MegTr-61" value="yes" style="edgeStyle=orthogonalEdgeStyle;rounded=0;orthogonalLoop=1;jettySize=auto;html=1;" edge="1" parent="WIyWlLk6GJQsqaUBKTNV-1" source="9E-DVvD8XDIGVB_MegTr-43" target="9E-DVvD8XDIGVB_MegTr-60">
          <mxGeometry relative="1" as="geometry" />
        </mxCell>
        <mxCell id="9E-DVvD8XDIGVB_MegTr-43" value="&lt;span&gt;WaitingToBeSend is enpty?&lt;/span&gt;" style="rhombus;whiteSpace=wrap;html=1;" vertex="1" parent="WIyWlLk6GJQsqaUBKTNV-1">
          <mxGeometry x="1174" y="140" width="150" height="100" as="geometry" />
        </mxCell>
        <mxCell id="9E-DVvD8XDIGVB_MegTr-50" value="Send message" style="whiteSpace=wrap;html=1;" vertex="1" parent="WIyWlLk6GJQsqaUBKTNV-1">
          <mxGeometry x="1169" y="430" width="160" height="30" as="geometry" />
        </mxCell>
        <mxCell id="9E-DVvD8XDIGVB_MegTr-51" value="" style="edgeStyle=orthogonalEdgeStyle;rounded=0;orthogonalLoop=1;jettySize=auto;html=1;" edge="1" parent="WIyWlLk6GJQsqaUBKTNV-1" source="9E-DVvD8XDIGVB_MegTr-52" target="9E-DVvD8XDIGVB_MegTr-50">
          <mxGeometry relative="1" as="geometry" />
        </mxCell>
        <mxCell id="9E-DVvD8XDIGVB_MegTr-52" value="Add entry with message id key to WaitingForResponse" style="whiteSpace=wrap;html=1;" vertex="1" parent="WIyWlLk6GJQsqaUBKTNV-1">
          <mxGeometry x="1169" y="360" width="160" height="30" as="geometry" />
        </mxCell>
        <mxCell id="9E-DVvD8XDIGVB_MegTr-57" value="" style="edgeStyle=orthogonalEdgeStyle;rounded=0;orthogonalLoop=1;jettySize=auto;html=1;" edge="1" parent="WIyWlLk6GJQsqaUBKTNV-1" source="9E-DVvD8XDIGVB_MegTr-54" target="9E-DVvD8XDIGVB_MegTr-52">
          <mxGeometry relative="1" as="geometry" />
        </mxCell>
        <mxCell id="9E-DVvD8XDIGVB_MegTr-54" value="Shift message from WaitingToBeSend" style="whiteSpace=wrap;html=1;" vertex="1" parent="WIyWlLk6GJQsqaUBKTNV-1">
          <mxGeometry x="1169" y="290" width="160" height="30" as="geometry" />
        </mxCell>
        <mxCell id="9E-DVvD8XDIGVB_MegTr-60" value="Free lock" style="whiteSpace=wrap;html=1;" vertex="1" parent="WIyWlLk6GJQsqaUBKTNV-1">
          <mxGeometry x="1374" y="160" width="120" height="60" as="geometry" />
        </mxCell>
        <mxCell id="9E-DVvD8XDIGVB_MegTr-70" value="" style="edgeStyle=orthogonalEdgeStyle;rounded=0;orthogonalLoop=1;jettySize=auto;html=1;" edge="1" parent="WIyWlLk6GJQsqaUBKTNV-1" source="9E-DVvD8XDIGVB_MegTr-62" target="9E-DVvD8XDIGVB_MegTr-69">
          <mxGeometry relative="1" as="geometry" />
        </mxCell>
        <mxCell id="9E-DVvD8XDIGVB_MegTr-62" value="Disconnect" style="rounded=1;whiteSpace=wrap;html=1;fillColor=#d5e8d4;strokeColor=#82b366;" vertex="1" parent="WIyWlLk6GJQsqaUBKTNV-1">
          <mxGeometry x="550.5" y="390" width="120" height="60" as="geometry" />
        </mxCell>
        <mxCell id="9E-DVvD8XDIGVB_MegTr-67" value="yes" style="edgeStyle=orthogonalEdgeStyle;rounded=0;orthogonalLoop=1;jettySize=auto;html=1;entryX=0;entryY=0.5;entryDx=0;entryDy=0;" edge="1" parent="WIyWlLk6GJQsqaUBKTNV-1" source="9E-DVvD8XDIGVB_MegTr-63" target="9E-DVvD8XDIGVB_MegTr-31">
          <mxGeometry relative="1" as="geometry" />
        </mxCell>
        <mxCell id="9E-DVvD8XDIGVB_MegTr-68" value="no" style="edgeStyle=orthogonalEdgeStyle;rounded=0;orthogonalLoop=1;jettySize=auto;html=1;entryX=0;entryY=0.5;entryDx=0;entryDy=0;exitX=0.443;exitY=0.078;exitDx=0;exitDy=0;exitPerimeter=0;" edge="1" parent="WIyWlLk6GJQsqaUBKTNV-1" source="9E-DVvD8XDIGVB_MegTr-63" target="9E-DVvD8XDIGVB_MegTr-37">
          <mxGeometry relative="1" as="geometry">
            <Array as="points">
              <mxPoint x="557" y="190" />
              <mxPoint x="565" y="190" />
              <mxPoint x="565" y="100" />
            </Array>
          </mxGeometry>
        </mxCell>
        <mxCell id="9E-DVvD8XDIGVB_MegTr-63" value="status code bit 7 is one?" style="rhombus;whiteSpace=wrap;html=1;" vertex="1" parent="WIyWlLk6GJQsqaUBKTNV-1">
          <mxGeometry x="490" y="140" width="150" height="100" as="geometry" />
        </mxCell>
        <mxCell id="9E-DVvD8XDIGVB_MegTr-69" value="Clear Lock, WaitingForResponse and WaitingToBeSend" style="whiteSpace=wrap;html=1;" vertex="1" parent="WIyWlLk6GJQsqaUBKTNV-1">
          <mxGeometry x="531" y="510" width="159" height="80" as="geometry" />
        </mxCell>
      </root>
    </mxGraphModel>
  </diagram>
</mxfile>
